<svg width="4160" height="705" viewBox="0 0 4160 705" fill="none" xmlns="http://www.w3.org/2000/svg">
<g clip-path="url(#clip0_5020_673)" filter="url(#filter0_f_5020_673)">
<path opacity="0.15" d="M3824.51 307.88C3913.88 344.97 3986.35 409.451 3852.79 454.973C3839.02 459.666 3709.8 502.248 3515.47 496.96C3278.78 490.52 3230.24 420.812 2969.02 402.716C2686.13 383.119 2520.1 449.425 2381.95 429.056C2218.59 404.97 2198.54 275.071 2494.22 219.396C2850.42 152.326 3584.22 208.151 3824.51 307.88Z" fill="#EBC136"/>
<path opacity="0.15" d="M1597.99 499.639C1680.82 480.569 1771.08 442.149 1715.02 403.285C1709.24 399.279 1654.03 362.654 1524.48 353.834C1366.68 343.09 1288.43 386.52 1106.91 381.996C910.333 377.096 847.169 322.301 743.924 327.114C621.839 332.806 521.672 418.21 676.036 474.149C861.996 541.538 1375.26 550.917 1597.99 499.639Z" fill="#EBC136"/>
<path opacity="0.15" d="M2084.2 391.89C2043.17 370.799 2001.24 330.221 2037.19 292.859C2040.9 289.007 2076.05 253.857 2146.34 248.298C2231.95 241.526 2266.7 286.799 2363.95 286.823C2469.26 286.849 2511.51 233.774 2565.66 241.155C2629.68 249.883 2669.45 337.571 2578.52 389.508C2468.97 452.075 2194.54 448.602 2084.2 391.89Z" fill="#EBC136"/>
<path opacity="0.15" d="M2051.91 344.802C2096.76 334.124 2145.66 312.633 2115.4 290.936C2112.28 288.699 2082.48 268.254 2012.41 263.363C1927.06 257.407 1884.65 281.693 1786.46 279.218C1680.12 276.538 1646.05 245.943 1590.19 248.661C1524.13 251.876 1469.79 299.62 1553.2 330.828C1653.67 368.423 1931.33 373.514 2051.91 344.802Z" fill="#EBC136"/>
<path opacity="0.15" d="M3983 318.365C4031.36 302.046 4084.53 269.494 4053.19 237.192C4049.96 233.861 4019.05 203.43 3944.44 196.595C3853.57 188.269 3807.2 224.964 3702.46 221.946C3589.03 218.678 3554.01 173.066 3494.24 177.534C3423.56 182.818 3363.4 254.751 3451.08 300.934C3556.69 356.569 3852.95 362.244 3983 318.365Z" fill="#8047F8"/>
<path opacity="0.15" d="M4014.95 447.852C4052.55 458.804 4093.73 480.725 4068.9 502.622C4066.34 504.88 4041.86 525.511 3983.51 530.261C3912.43 536.047 3876.61 511.312 3794.76 513.533C3706.11 515.938 3678.26 546.841 3631.62 543.922C3576.46 540.47 3530.25 491.932 3599.24 460.552C3682.35 422.749 3913.84 418.404 4014.95 447.852Z" fill="#8047F8"/>
<path opacity="0.15" d="M818.499 206.891C852.018 228.616 885.153 270.056 852.52 307.491C849.156 311.351 817.332 346.558 757.48 351.502C684.58 357.524 657.8 311.405 575.445 310.442C486.259 309.4 447.374 362.665 401.952 354.678C348.241 345.234 319.688 256.175 399.733 204.53C496.161 142.315 728.37 148.476 818.499 206.891Z" fill="#EBC136"/>
<path opacity="0.15" d="M2529.35 502.947C2460.32 483.727 2393.23 445.18 2463.8 406.528C2471.08 402.543 2539.82 366.123 2665.6 357.62C2818.79 347.262 2872.29 390.78 3044.91 386.683C3231.84 382.246 3316.43 327.712 3411.21 332.753C3523.28 338.713 3578.03 424.166 3407.23 479.631C3201.48 546.449 2714.97 554.627 2529.35 502.947Z" fill="#EBC136"/>
<path opacity="0.15" d="M2333.12 469.538C2390.84 450.513 2451.33 413.904 2405.25 380.187C2400.49 376.71 2355.33 344.989 2259.81 339.962C2143.48 333.84 2092.41 374.687 1959.65 374.695C1815.88 374.704 1762.45 326.807 1687.94 333.46C1599.84 341.327 1538.51 420.444 1658.48 467.321C1803.01 523.792 2177.94 520.695 2333.12 469.538Z" fill="#8047F8"/>
<path opacity="0.15" d="M2459.92 211.004C2568.05 221.665 2682.88 241.464 2600.9 258.257C2592.44 259.989 2511.98 275.762 2336.29 277.009C2122.3 278.528 2024.48 256.67 1779.65 254.784C1514.51 252.742 1420.27 276.767 1282.27 272.269C1119.09 266.95 998.939 225.145 1216 202.591C1477.49 175.42 2169.18 182.335 2459.92 211.004Z" fill="#8047F8"/>
<path opacity="0.15" d="M680.37 452.866C731.268 430.714 784.933 388.381 745.211 349.978C741.115 346.018 702.16 309.899 618.614 304.685C516.853 298.335 471.363 345.474 355.102 346.25C229.198 347.089 183.318 292.467 117.944 300.526C40.6412 310.056 -14.5543 401.145 89.6226 454.214C215.122 518.144 543.51 512.431 680.37 452.866Z" fill="#8047F8"/>
</g>
<defs>
<filter id="filter0_f_5020_673" x="0" y="-90" width="4160" height="864" filterUnits="userSpaceOnUse" color-interpolation-filters="sRGB">
<feFlood flood-opacity="0" result="BackgroundImageFix"/>
<feBlend mode="normal" in="SourceGraphic" in2="BackgroundImageFix" result="shape"/>
<feGaussianBlur stdDeviation="80" result="effect1_foregroundBlur_5020_673"/>
</filter>
<clipPath id="clip0_5020_673">
<rect width="3840" height="544" fill="white" transform="translate(160 70)"/>
</clipPath>
</defs>
</svg>
